
<svg width="23px" height="23px" viewBox="0 0 23 23" version="1.1" xmlns="http://www.w3.org/2000/svg" xmlns:xlink="http://www.w3.org/1999/xlink">
    <g id="Designs" stroke="none" stroke-width="1" fill="none" fill-rule="evenodd">
        <g id="Mobile---Home" transform="translate(-79.000000, -5061.000000)" fill="#0E8784" fill-rule="nonzero">
            <g id="Group-18" transform="translate(24.000000, 5006.000000)">
                <g id="Group-5" transform="translate(55.000000, 54.000000)">
                    <path d="M21.2519369,9.9893327 C23.9200309,12.6575272 23.4548106,17.4663698 20.212114,20.7091884 C18.6544566,22.2669045 16.6925005,23.2389193 14.6862378,23.4466148 C14.419013,23.4729229 14.1545574,23.4867692 13.8956401,23.4867692 C12.170448,23.4867692 10.6294056,22.8816831 9.49404643,21.7462812 C8.1869988,20.4405689 7.58332001,18.5962331 7.796546,16.5538943 C8.00284908,14.547556 8.9748273,12.5855261 10.5324847,11.0278101 C13.7765659,7.78637604 18.5852274,7.3183689 21.2519369,9.9893327 Z M21.0857867,10.1554891 C20.1982682,11.2258131 19.5433597,12.4470625 18.4536919,13.3429223 C17.2934102,14.2969368 16.0168234,14.6444806 14.6128548,15.0515637 C11.5321546,15.9460389 10.0091118,18.5505401 9.65742739,21.5815094 C10.6197135,20.4253379 11.3258515,19.1293182 12.5415166,18.2002271 C13.6048774,17.3888301 14.755467,17.0675944 16.0071313,16.7255892 C19.1556761,15.8615761 20.7188719,13.2349206 21.0857867,10.1554891 Z M13.2822693,4.1046276 C14.1462499,4.96864077 14.8080812,5.96280978 15.2802245,7.01374887 C13.72949,7.28098372 12.227216,7.9289936 10.8952458,8.90239305 C10.3884879,8.58392666 9.83603877,8.31115327 9.20051455,8.12699661 C7.79793059,7.71991349 6.51995922,7.37375436 5.35967752,6.41835518 C4.27139422,5.52249537 3.61648581,4.29986135 2.72758265,3.23092198 C3.09311292,6.31035354 4.65769325,8.93700896 7.8062381,9.80102213 C8.33791849,9.94640897 8.84744554,10.0959497 9.34451132,10.2731832 C7.84362187,11.8544381 6.85502864,13.7804674 6.51026713,15.7840364 C5.4593676,15.3104907 4.46385144,14.6500191 3.5998708,13.786006 C0.361327972,10.5431873 -0.105276958,5.73434475 2.56281711,3.06615023 C5.22952659,0.396571074 10.0381881,0.863193572 13.2822693,4.1046276 Z" id="Combined-Shape"></path>
                </g>
            </g>
        </g>
    </g>
</svg>
